<svg xmlns="http://www.w3.org/2000/svg" width="24" height="24" id="x"><path d="M22.8 23.5H17c-.2 0-.3-.1-.4-.2L12 15.4l-4.5 7.9c-.1.2-.3.2-.4.2H1.2c-.2 0-.3-.1-.4-.2-.1-.1-.1-.3 0-.5 0-.1.1-.2.1-.2l6-10.6L.8 1.5s-.1-.1-.1-.2C.6 1.1.6.9.7.8c.2-.2.3-.3.5-.3H7c.2 0 .3.1.4.2L12 8.6 16.5.7c.1-.2.3-.2.4-.2h5.8c.2 0 .3.1.4.2.1.1.1.3 0 .5 0 .1-.1.2-.1.3L17 12l6.1 10.5c0 .1.1.1.1.2.1.2.1.4 0 .5s-.2.3-.4.3zm-5.5-1H22l-5.9-10.2c-.1-.2-.1-.3 0-.5L22 1.5h-4.7l-4.8 8.4c-.1.2-.3.2-.4.2-.2 0-.3-.1-.4-.2l-5-8.4H2l5.9 10.2c.1.2.1.3 0 .5L2 22.5h4.7l4.8-8.4c.2-.3.7-.3.9 0l4.9 8.4z"></path></svg>