<svg xmlns="http://www.w3.org/2000/svg" viewBox="0 0 32 32" id="tic-tac-toe"><path d="M28,1H4A3,3,0,0,0,1,4V28a3,3,0,0,0,3,3H28a3,3,0,0,0,3-3V4A3,3,0,0,0,28,1Zm1,3v6.33H21.67V3H28A1,1,0,0,1,29,4ZM12.33,19.67V12.33h7.34v7.34Zm7.34,2V29H12.33V21.67Zm-9.34-2H3V12.33h7.33Zm2-9.34V3h7.34v7.33Zm9.34,2H29v7.34H21.67ZM4,3h6.33v7.33H3V4A1,1,0,0,1,4,3ZM3,28V21.67h7.33V29H4A1,1,0,0,1,3,28Zm25,1H21.67V21.67H29V28A1,1,0,0,1,28,29Z"></path><path d="M6.67 19a3 3 0 1 0-3-3A3 3 0 0 0 6.67 19zm0-4a1 1 0 1 1-1 1A1 1 0 0 1 6.67 15zM16 3.67a3 3 0 1 0 3 3A3 3 0 0 0 16 3.67zm0 4a1 1 0 1 1 1-1A1 1 0 0 1 16 7.67zM16 28.33a3 3 0 1 0-3-3A3 3 0 0 0 16 28.33zm0-4a1 1 0 1 1-1 1A1 1 0 0 1 16 24.33zM17.41 16l.8-.79a1 1 0 0 0-1.42-1.42l-.79.8-.79-.8a1 1 0 0 0-1.42 1.42l.8.79-.8.79a1 1 0 0 0 0 1.42 1 1 0 0 0 1.42 0l.79-.8.79.8a1 1 0 0 0 1.42 0 1 1 0 0 0 0-1.42zM26.75 16l.79-.79a1 1 0 0 0 0-1.42 1 1 0 0 0-1.41 0l-.8.8-.79-.8a1 1 0 0 0-1.41 0 1 1 0 0 0 0 1.42l.79.79-.79.79a1 1 0 0 0 1.41 1.42l.79-.8.8.8a1 1 0 1 0 1.41-1.42z"></path></svg>